<svg xmlns="http://www.w3.org/2000/svg" width="800" height="800" viewBox="0 0 800 800" fill="none">
  <defs>
    <linearGradient id="bg" x1="0" y1="0" x2="1" y2="1">
      <stop offset="0%" stop-color="#DC2626"/><stop offset="100%" stop-color="#6C3FC5"/>
    </linearGradient>
  </defs>
  <rect width="800" height="800" rx="120" fill="url(#bg)"/>
  <!-- Large document -->
  <path d="M220 160 L460 160 L580 280 L580 600 Q580 640 550 640 L250 640 Q220 640 220 600 L220 190 Q220 160 250 160 Z" fill="#FFFFFF"/>
  <!-- Fold corner -->
  <path d="M460 160 L460 240 Q460 280 500 280 L580 280 Z" fill="#DC2626"/>
  <!-- Document lines -->
  <rect x="260" y="340" rx="8" width="200" height="20" fill="#6C3FC5"/>
  <rect x="260" y="390" rx="8" width="280" height="20" fill="#6C3FC5"/>
  <rect x="260" y="440" rx="8" width="160" height="20" fill="#6C3FC5"/>
  <rect x="260" y="490" rx="8" width="240" height="20" fill="#6C3FC5"/>
</svg>