<svg xmlns="http://www.w3.org/2000/svg" width="800" height="800" viewBox="0 0 800 800" fill="none">
  <defs>
    <linearGradient id="bg" x1="0" y1="0" x2="1" y2="1">
      <stop offset="0%" stop-color="#450A0A"/>
      <stop offset="100%" stop-color="#1A0000"/>
    </linearGradient>
    <linearGradient id="doc" x1="0" y1="0" x2="1" y2="1">
      <stop offset="0%" stop-color="#DC2626"/>
      <stop offset="100%" stop-color="#6C3FC5"/>
    </linearGradient>
    <linearGradient id="fold" x1="0" y1="0" x2="1" y2="1">
      <stop offset="0%" stop-color="#EF4444"/>
      <stop offset="100%" stop-color="#991B1B"/>
    </linearGradient>
  </defs>
  <rect width="800" height="800" rx="120" fill="url(#bg)"/>
  <!-- Decorative ring -->
  <circle cx="400" cy="390" r="195" stroke="#DC2626" stroke-width="2" opacity="0.2"/>
  <circle cx="400" cy="390" r="215" stroke="#DC2626" stroke-width="1" opacity="0.1"/>
  <!-- Document body -->
  <path d="M270 200 L490 200 L580 290 L580 560 Q580 590 550 590 L270 590 Q240 590 240 560 L240 230 Q240 200 270 200 Z" fill="url(#doc)" opacity="0.95"/>
  <!-- Fold corner -->
  <path d="M490 200 L490 260 Q490 290 520 290 L580 290 L490 200 Z" fill="url(#fold)" opacity="0.9"/>
  <!-- Document lines -->
  <rect x="280" y="340" rx="6" width="180" height="14" fill="#FCA5A5" opacity="0.5"/>
  <rect x="280" y="380" rx="6" width="240" height="14" fill="#FCA5A5" opacity="0.35"/>
  <rect x="280" y="420" rx="6" width="140" height="14" fill="#FCA5A5" opacity="0.25"/>
  <rect x="280" y="460" rx="6" width="200" height="14" fill="#FCA5A5" opacity="0.35"/>
  <rect x="280" y="500" rx="6" width="260" height="14" fill="#FCA5A5" opacity="0.2"/>
  <!-- Accent dots -->
  <circle cx="180" cy="220" r="7" fill="#EF4444" opacity="0.4"/>
  <circle cx="630" cy="560" r="8" fill="#DC2626" opacity="0.35"/>
  <circle cx="200" cy="580" r="5" fill="#6C3FC5" opacity="0.3"/>
</svg>